<svg width="491" height="188" viewBox="0 0 491 188" fill="none" xmlns="http://www.w3.org/2000/svg">
<rect width="491" height="188" rx="6" fill="#191917"/>
<path d="M188.478 98L184.058 91.916V98H179.612V78.76H184.058V89.394L188.452 83.492H193.938L187.906 90.772L193.99 98H188.478ZM204.524 83.336C206.223 83.336 207.575 83.8907 208.58 85C209.603 86.092 210.114 87.6 210.114 89.524V98H205.694V90.122C205.694 89.1513 205.443 88.3973 204.94 87.86C204.438 87.3227 203.762 87.054 202.912 87.054C202.063 87.054 201.387 87.3227 200.884 87.86C200.382 88.3973 200.13 89.1513 200.13 90.122V98H195.684V83.492H200.13V85.416C200.581 84.7747 201.188 84.272 201.95 83.908C202.713 83.5267 203.571 83.336 204.524 83.336ZM219.808 98.208C218.386 98.208 217.104 97.9047 215.96 97.298C214.833 96.6913 213.94 95.8247 213.282 94.698C212.64 93.5713 212.32 92.254 212.32 90.746C212.32 89.2553 212.649 87.9467 213.308 86.82C213.966 85.676 214.868 84.8007 216.012 84.194C217.156 83.5873 218.438 83.284 219.86 83.284C221.281 83.284 222.564 83.5873 223.708 84.194C224.852 84.8007 225.753 85.676 226.412 86.82C227.07 87.9467 227.4 89.2553 227.4 90.746C227.4 92.2367 227.062 93.554 226.386 94.698C225.727 95.8247 224.817 96.6913 223.656 97.298C222.512 97.9047 221.229 98.208 219.808 98.208ZM219.808 94.36C220.657 94.36 221.376 94.048 221.966 93.424C222.572 92.8 222.876 91.9073 222.876 90.746C222.876 89.5847 222.581 88.692 221.992 88.068C221.42 87.444 220.709 87.132 219.86 87.132C218.993 87.132 218.274 87.444 217.702 88.068C217.13 88.6747 216.844 89.5673 216.844 90.746C216.844 91.9073 217.121 92.8 217.676 93.424C218.248 94.048 218.958 94.36 219.808 94.36ZM250.584 83.492L246.658 98H241.744L239.456 88.588L237.09 98H232.202L228.25 83.492H232.696L234.75 93.866L237.194 83.492H241.9L244.37 93.814L246.398 83.492H250.584ZM263.46 87.028V90.72H252.02V87.028H263.46ZM282.182 83.492L273.082 104.89H268.298L271.626 97.506L265.724 83.492H270.69L274.044 92.566L277.372 83.492H282.182ZM290.394 98.208C288.972 98.208 287.69 97.9047 286.546 97.298C285.419 96.6913 284.526 95.8247 283.868 94.698C283.226 93.5713 282.906 92.254 282.906 90.746C282.906 89.2553 283.235 87.9467 283.894 86.82C284.552 85.676 285.454 84.8007 286.598 84.194C287.742 83.5873 289.024 83.284 290.446 83.284C291.867 83.284 293.15 83.5873 294.294 84.194C295.438 84.8007 296.339 85.676 296.998 86.82C297.656 87.9467 297.986 89.2553 297.986 90.746C297.986 92.2367 297.648 93.554 296.972 94.698C296.313 95.8247 295.403 96.6913 294.242 97.298C293.098 97.9047 291.815 98.208 290.394 98.208ZM290.394 94.36C291.243 94.36 291.962 94.048 292.552 93.424C293.158 92.8 293.462 91.9073 293.462 90.746C293.462 89.5847 293.167 88.692 292.578 88.068C292.006 87.444 291.295 87.132 290.446 87.132C289.579 87.132 288.86 87.444 288.288 88.068C287.716 88.6747 287.43 89.5673 287.43 90.746C287.43 91.9073 287.707 92.8 288.262 93.424C288.834 94.048 289.544 94.36 290.394 94.36ZM314.67 83.492V98H310.224V96.024C309.774 96.6653 309.158 97.1853 308.378 97.584C307.616 97.9653 306.766 98.156 305.83 98.156C304.721 98.156 303.742 97.9133 302.892 97.428C302.043 96.9253 301.384 96.206 300.916 95.27C300.448 94.334 300.214 93.2333 300.214 91.968V83.492H304.634V91.37C304.634 92.3407 304.886 93.0947 305.388 93.632C305.891 94.1693 306.567 94.438 307.416 94.438C308.283 94.438 308.968 94.1693 309.47 93.632C309.973 93.0947 310.224 92.3407 310.224 91.37V83.492H314.67ZM322.31 85.91C322.83 85.1127 323.48 84.4887 324.26 84.038C325.04 83.57 325.907 83.336 326.86 83.336V88.042H325.638C324.529 88.042 323.697 88.2847 323.142 88.77C322.587 89.238 322.31 90.07 322.31 91.266V98H317.864V83.492H322.31V85.91ZM340.165 87.028V90.72H328.725V87.028H340.165ZM349.579 83.284C350.602 83.284 351.494 83.492 352.257 83.908C353.037 84.324 353.635 84.87 354.051 85.546V83.492H358.497V97.974C358.497 99.3087 358.228 100.513 357.691 101.588C357.171 102.68 356.365 103.547 355.273 104.188C354.198 104.829 352.855 105.15 351.243 105.15C349.094 105.15 347.352 104.639 346.017 103.616C344.682 102.611 343.92 101.241 343.729 99.508H348.123C348.262 100.063 348.591 100.496 349.111 100.808C349.631 101.137 350.272 101.302 351.035 101.302C351.954 101.302 352.682 101.033 353.219 100.496C353.774 99.976 354.051 99.1353 354.051 97.974V95.92C353.618 96.596 353.02 97.1507 352.257 97.584C351.494 98 350.602 98.208 349.579 98.208C348.383 98.208 347.3 97.9047 346.329 97.298C345.358 96.674 344.587 95.7987 344.015 94.672C343.46 93.528 343.183 92.2107 343.183 90.72C343.183 89.2293 343.46 87.9207 344.015 86.794C344.587 85.6673 345.358 84.8007 346.329 84.194C347.3 83.5873 348.383 83.284 349.579 83.284ZM354.051 90.746C354.051 89.6367 353.739 88.7613 353.115 88.12C352.508 87.4787 351.763 87.158 350.879 87.158C349.995 87.158 349.241 87.4787 348.617 88.12C348.01 88.744 347.707 89.6107 347.707 90.72C347.707 91.8293 348.01 92.7133 348.617 93.372C349.241 94.0133 349.995 94.334 350.879 94.334C351.763 94.334 352.508 94.0133 353.115 93.372C353.739 92.7307 354.051 91.8553 354.051 90.746ZM363.95 81.984C363.17 81.984 362.528 81.7587 362.026 81.308C361.54 80.84 361.298 80.268 361.298 79.592C361.298 78.8987 361.54 78.3267 362.026 77.876C362.528 77.408 363.17 77.174 363.95 77.174C364.712 77.174 365.336 77.408 365.822 77.876C366.324 78.3267 366.576 78.8987 366.576 79.592C366.576 80.268 366.324 80.84 365.822 81.308C365.336 81.7587 364.712 81.984 363.95 81.984ZM366.16 83.492V98H361.714V83.492H366.16ZM377.468 94.23V98H375.206C373.594 98 372.337 97.61 371.436 96.83C370.534 96.0327 370.084 94.7413 370.084 92.956V87.184H368.316V83.492H370.084V79.956H374.53V83.492H377.442V87.184H374.53V93.008C374.53 93.4413 374.634 93.7533 374.842 93.944C375.05 94.1347 375.396 94.23 375.882 94.23H377.468ZM385.846 98.208C384.581 98.208 383.454 97.9913 382.466 97.558C381.478 97.1247 380.698 96.5353 380.126 95.79C379.554 95.0273 379.233 94.178 379.164 93.242H383.558C383.61 93.7447 383.844 94.152 384.26 94.464C384.676 94.776 385.187 94.932 385.794 94.932C386.349 94.932 386.773 94.828 387.068 94.62C387.38 94.3947 387.536 94.1087 387.536 93.762C387.536 93.346 387.319 93.0427 386.886 92.852C386.453 92.644 385.751 92.4187 384.78 92.176C383.74 91.9333 382.873 91.682 382.18 91.422C381.487 91.1447 380.889 90.72 380.386 90.148C379.883 89.5587 379.632 88.77 379.632 87.782C379.632 86.95 379.857 86.196 380.308 85.52C380.776 84.8267 381.452 84.2807 382.336 83.882C383.237 83.4833 384.303 83.284 385.534 83.284C387.354 83.284 388.784 83.7347 389.824 84.636C390.881 85.5373 391.488 86.7333 391.644 88.224H387.536C387.467 87.7213 387.241 87.3227 386.86 87.028C386.496 86.7333 386.011 86.586 385.404 86.586C384.884 86.586 384.485 86.69 384.208 86.898C383.931 87.0887 383.792 87.3573 383.792 87.704C383.792 88.12 384.009 88.432 384.442 88.64C384.893 88.848 385.586 89.056 386.522 89.264C387.597 89.5413 388.472 89.8187 389.148 90.096C389.824 90.356 390.413 90.7893 390.916 91.396C391.436 91.9853 391.705 92.7827 391.722 93.788C391.722 94.6373 391.479 95.4 390.994 96.076C390.526 96.7347 389.841 97.2547 388.94 97.636C388.056 98.0173 387.025 98.208 385.846 98.208ZM402.528 94.23V98H400.266C398.654 98 397.397 97.61 396.496 96.83C395.595 96.0327 395.144 94.7413 395.144 92.956V87.184H393.376V83.492H395.144V79.956H399.59V83.492H402.502V87.184H399.59V93.008C399.59 93.4413 399.694 93.7533 399.902 93.944C400.11 94.1347 400.457 94.23 400.942 94.23H402.528ZM404.121 90.72C404.121 89.2293 404.398 87.9207 404.953 86.794C405.525 85.6673 406.296 84.8007 407.267 84.194C408.237 83.5873 409.321 83.284 410.517 83.284C411.539 83.284 412.432 83.492 413.195 83.908C413.975 84.324 414.573 84.87 414.989 85.546V83.492H419.435V98H414.989V95.946C414.555 96.622 413.949 97.168 413.169 97.584C412.406 98 411.513 98.208 410.491 98.208C409.312 98.208 408.237 97.9047 407.267 97.298C406.296 96.674 405.525 95.7987 404.953 94.672C404.398 93.528 404.121 92.2107 404.121 90.72ZM414.989 90.746C414.989 89.6367 414.677 88.7613 414.053 88.12C413.446 87.4787 412.701 87.158 411.817 87.158C410.933 87.158 410.179 87.4787 409.555 88.12C408.948 88.744 408.645 89.6107 408.645 90.72C408.645 91.8293 408.948 92.7133 409.555 93.372C410.179 94.0133 410.933 94.334 411.817 94.334C412.701 94.334 413.446 94.0133 414.053 93.372C414.677 92.7307 414.989 91.8553 414.989 90.746ZM430.737 94.23V98H428.475C426.863 98 425.606 97.61 424.705 96.83C423.804 96.0327 423.353 94.7413 423.353 92.956V87.184H421.585V83.492H423.353V79.956H427.799V83.492H430.711V87.184H427.799V93.008C427.799 93.4413 427.903 93.7533 428.111 93.944C428.319 94.1347 428.666 94.23 429.151 94.23H430.737ZM439.116 98.208C437.85 98.208 436.724 97.9913 435.736 97.558C434.748 97.1247 433.968 96.5353 433.396 95.79C432.824 95.0273 432.503 94.178 432.434 93.242H436.828C436.88 93.7447 437.114 94.152 437.53 94.464C437.946 94.776 438.457 94.932 439.064 94.932C439.618 94.932 440.043 94.828 440.338 94.62C440.65 94.3947 440.806 94.1087 440.806 93.762C440.806 93.346 440.589 93.0427 440.156 92.852C439.722 92.644 439.02 92.4187 438.05 92.176C437.01 91.9333 436.143 91.682 435.45 91.422C434.756 91.1447 434.158 90.72 433.656 90.148C433.153 89.5587 432.902 88.77 432.902 87.782C432.902 86.95 433.127 86.196 433.578 85.52C434.046 84.8267 434.722 84.2807 435.606 83.882C436.507 83.4833 437.573 83.284 438.804 83.284C440.624 83.284 442.054 83.7347 443.094 84.636C444.151 85.5373 444.758 86.7333 444.914 88.224H440.806C440.736 87.7213 440.511 87.3227 440.13 87.028C439.766 86.7333 439.28 86.586 438.674 86.586C438.154 86.586 437.755 86.69 437.478 86.898C437.2 87.0887 437.062 87.3573 437.062 87.704C437.062 88.12 437.278 88.432 437.712 88.64C438.162 88.848 438.856 89.056 439.792 89.264C440.866 89.5413 441.742 89.8187 442.418 90.096C443.094 90.356 443.683 90.7893 444.186 91.396C444.706 91.9853 444.974 92.7827 444.992 93.788C444.992 94.6373 444.749 95.4 444.264 96.076C443.796 96.7347 443.111 97.2547 442.21 97.636C441.326 98.0173 440.294 98.208 439.116 98.208Z" fill="url(#paint0_linear_2_2)"/>
<path d="M163 91.9382C163 104.784 159.184 116.335 151.552 126.593C143.926 136.851 134.068 143.946 121.984 147.885C120.58 148.144 119.548 147.966 118.9 147.35C118.58 147.052 118.328 146.694 118.16 146.298C117.992 145.903 117.911 145.478 117.922 145.05V128.853C117.922 123.891 116.566 120.257 113.86 117.957C116.563 117.697 119.241 117.235 121.87 116.577C124.234 115.961 126.682 114.967 129.208 113.587C131.637 112.285 133.785 110.552 135.538 108.481C137.23 106.457 138.61 103.772 139.678 100.419C140.746 97.0672 141.28 93.2205 141.28 88.8735C141.28 82.6808 139.222 77.4082 135.112 73.0612C137.032 68.4038 136.828 63.1886 134.482 57.4041C133.024 56.9441 130.918 57.2316 128.158 58.2494C125.654 59.1506 123.247 60.2809 120.97 61.6246L118 63.4646C113.122 62.1318 108.073 61.4621 103 61.4751C97.9272 61.4639 92.8779 62.1356 88 63.4703C86.9149 62.7501 85.8084 62.0598 84.682 61.4003C83.302 60.5781 81.124 59.5949 78.154 58.4449C75.19 57.2949 72.946 56.9499 71.434 57.4099C69.148 63.1886 68.962 68.4038 70.894 73.0612C66.778 77.4082 64.714 82.6808 64.714 88.8735C64.714 93.2205 65.254 97.0557 66.322 100.385C67.39 103.708 68.758 106.394 70.42 108.441C72.1434 110.533 74.2801 112.28 76.708 113.581C79.234 114.961 81.688 115.961 84.052 116.571C86.422 117.192 89.092 117.652 92.062 117.957C89.98 119.797 88.702 122.436 88.234 125.863C87.1153 126.382 85.9346 126.768 84.718 127.013C83.2519 127.289 81.7599 127.418 80.266 127.398C78.544 127.398 76.846 126.846 75.148 125.748C73.456 124.644 72.01 123.045 70.81 120.952C69.8726 119.37 68.5793 118.006 67.024 116.962C65.488 115.938 64.198 115.323 63.154 115.122L61.594 114.892C60.502 114.892 59.746 115.007 59.326 115.237C58.906 115.467 58.786 115.754 58.936 116.117C59.1125 116.507 59.3491 116.869 59.638 117.192C59.9377 117.537 60.2803 117.846 60.658 118.112L61.198 118.491C62.35 119.009 63.478 119.981 64.6 121.412C65.722 122.844 66.544 124.149 67.06 125.322L67.84 127.088C68.518 129.031 69.664 130.607 71.284 131.808C72.898 133.016 74.644 133.781 76.516 134.108C78.388 134.442 80.2 134.626 81.946 134.649C83.686 134.672 85.138 134.586 86.284 134.379L88.078 134.074C88.078 136.017 88.09 138.294 88.12 140.905L88.156 145.045C88.156 145.965 87.82 146.735 87.136 147.345C86.464 147.966 85.42 148.144 84.016 147.885C71.932 143.946 62.074 136.845 54.448 126.593C46.816 116.335 43 104.784 43 91.9382C43 81.2434 45.682 71.388 51.046 62.3548C56.2389 53.4951 63.7705 46.0989 72.886 40.9076C81.973 35.6654 92.3939 32.9295 103 33.0014C113.608 32.9285 124.031 35.6644 133.12 40.9076C142.233 46.0997 149.763 53.4958 154.954 62.3548C160.318 71.3822 163 81.2491 163 91.9382Z" fill="url(#paint1_linear_2_2)"/>
<path d="M56.6875 100.071C56.6875 99.7873 56.5887 99.5147 56.4129 99.3138C56.2371 99.1129 55.9986 99 55.75 99H53.875C53.6264 99 53.3879 99.1129 53.2121 99.3138C53.0363 99.5147 52.9375 99.7873 52.9375 100.071V112.929H52.4688C52.3444 112.929 52.2252 112.985 52.1373 113.085C52.0494 113.186 52 113.322 52 113.464C52 113.606 52.0494 113.743 52.1373 113.843C52.2252 113.944 52.3444 114 52.4688 114H59.5H66.5312C66.6556 114 66.7748 113.944 66.8627 113.843C66.9506 113.743 67 113.606 67 113.464C67 113.322 66.9506 113.186 66.8627 113.085C66.7748 112.985 66.6556 112.929 66.5312 112.929H66.0625V109.714C66.0625 109.43 65.9637 109.158 65.7879 108.957C65.6121 108.756 65.3736 108.643 65.125 108.643H63.25C63.0014 108.643 62.7629 108.756 62.5871 108.957C62.4113 109.158 62.3125 109.43 62.3125 109.714V112.929H61.375V105.429C61.375 105.144 61.2762 104.872 61.1004 104.671C60.9246 104.47 60.6861 104.357 60.4375 104.357H58.5625C58.3139 104.357 58.0754 104.47 57.8996 104.671C57.7238 104.872 57.625 105.144 57.625 105.429V112.929H56.6875V100.071Z" fill="black"/>
<defs>
<linearGradient id="paint0_linear_2_2" x1="244" y1="94" x2="404" y2="94" gradientUnits="userSpaceOnUse">
<stop stop-color="white"/>
<stop offset="1" stop-color="#4ABC74" stop-opacity="0.95"/>
</linearGradient>
<linearGradient id="paint1_linear_2_2" x1="102.368" y1="33" x2="103.015" y2="148" gradientUnits="userSpaceOnUse">
<stop stop-color="white"/>
<stop offset="1" stop-color="#4ABC74" stop-opacity="0.95"/>
</linearGradient>
</defs>
</svg>
