<svg width="256" height="256" viewBox="0 0 256 256" fill="none" xmlns="http://www.w3.org/2000/svg">
<circle cx="128" cy="128" r="128" fill="#383A40"/>
<path d="M153.56 140.667C147.902 140.667 143.315 148.168 143.315 157.388C143.315 166.628 147.902 174.129 153.56 174.129C159.218 174.129 163.804 166.628 163.804 157.388C163.796 148.168 159.218 140.667 153.56 140.667ZM189.227 97.1391C190.401 93.7465 190.448 74.4689 184.223 56C184.223 56 169.951 57.8497 148.359 75.3333C143.827 73.8462 136.16 73.1212 128.508 73.1212C120.84 73.1212 113.18 73.8462 108.649 75.3333C87.0489 57.8497 72.7774 56 72.7774 56C66.5598 74.4689 66.6228 93.7465 67.7812 97.1391C60.4682 106.508 56 117.764 56 133.12C56 199.913 102.991 200.981 114.843 200.981L128.508 201L142.157 200.981C154.025 200.981 201 199.913 201 133.12C201 117.764 196.54 106.508 189.227 97.1391V97.1391ZM128.721 192.774H128.279C98.5622 192.774 75.4095 188.601 75.4095 154.526C75.4095 146.355 77.8524 138.789 83.6603 132.506C93.3296 122.031 109.705 127.571 128.279 127.571H128.721C147.295 127.571 163.678 122.031 173.355 132.506C179.148 138.789 181.59 146.355 181.59 154.526C181.59 188.601 158.446 192.774 128.721 192.774ZM103.448 140.667C97.7899 140.667 93.2035 148.168 93.2035 157.388C93.2035 166.628 97.7899 174.129 103.448 174.129C109.114 174.129 113.701 166.628 113.701 157.388C113.701 148.168 109.114 140.667 103.448 140.667V140.667Z" fill="#D53A9D"/>
</svg>
